<svg>
<path
    class="glencairn"
    style="opacity:1;color:black;fill:#8cc056;fill-opacity:1;fill-rule:evenodd;stroke:black;stroke-width:3;stroke-linecap:butt;stroke-linejoin:miter;marker:none;marker-start:none;marker-mid:none;marker-end:none;stroke-miterlimit:4;stroke-dasharray:none;stroke-dashoffset:0;stroke-opacity:1;visibility:visible;display:inline;overflow:visible"
    d="M 53.037,22.997c45.328,0,90.655,0,135.983,0          c-0.462,32.558,1.689,62.144,7.999,90.989c6.033,27.583,16.253,53.933,19.997,78.99c5.57,37.27-10.411,63.548-32.996,78.99          c-5.856,4.005-22.15,10.517-22.997,15.998c-0.606,3.93,11.369,21.283,13.999,26.997c9.577,20.81,16.729,36.086-6,46.994          c-32.329,0-64.658,0-96.987,0c-22.155-10.187-15.856-25.577-6-46.994c1.861-4.043,14.256-22.396,13.999-25.997          c-0.469-6.562-16.75-12.727-22.998-16.998c-21.745-14.868-38.533-39.579-32.996-77.99c3.591-24.906,13.543-50.564,19.998-77.99          c6.645-28.237,6.786-58.19,7.999-89.989C51.952,24.578,51.872,23.165,53.037,22.997z"
/>
</svg>

